<?xml version="1.0" standalone="no"?>
<!DOCTYPE svg PUBLIC "-//W3C//DTD SVG 20010904//EN"
 "http://www.w3.org/TR/2001/REC-SVG-20010904/DTD/svg10.dtd">
<svg version="1.0" xmlns="http://www.w3.org/2000/svg"
 width="200.000000pt" height="100.000000pt" viewBox="0 0 300.000000 300.000000"
 preserveAspectRatio="xMidYMid meet">

<g transform="translate(0.000000,300.000000) scale(0.100000,-0.100000)"
fill="#000000" stroke="none">
<path d="M0 1500 l0 -1500 1500 0 1500 0 0 1500 0 1500 -1500 0 -1500 0 0
-1500z m1865 365 c44 -9 143 -37 220 -63 137 -44 143 -45 275 -46 74 -1 151 3
171 7 35 9 36 8 52 -32 22 -54 31 -137 19 -186 -8 -37 -9 -35 -9 31 -1 88 -32
170 -60 159 -101 -39 -273 -31 -438 21 -335 104 -504 114 -819 49 -66 -14
-121 -23 -124 -21 -4 5 115 42 206 66 160 41 352 47 507 15z m-635 -158 c246
-38 456 -42 585 -9 44 11 81 19 83 17 6 -5 -108 -45 -177 -62 -108 -27 -320
-22 -536 11 -326 51 -533 33 -737 -64 -34 -16 -48 -28 -49 -44 -1 -18 -2 -18
-6 -3 -7 28 21 52 111 96 142 70 310 104 461 94 39 -3 158 -19 265 -36z m-630
-225 c31 -25 21 -72 -15 -72 -18 0 -25 5 -25 20 0 24 -25 27 -34 4 -12 -31 -7
-74 9 -74 8 0 15 5 15 10 0 6 11 10 25 10 14 0 25 -4 25 -9 0 -43 -62 -71
-107 -49 -25 12 -28 18 -25 58 1 25 7 57 13 71 19 47 80 63 119 31z m600 0
c32 -26 21 -72 -16 -72 -18 0 -24 5 -22 17 5 27 -28 28 -36 1 -10 -40 -7 -68
9 -68 8 0 15 5 15 10 0 6 13 10 29 10 25 0 28 -3 24 -21 -7 -26 -65 -51 -98
-43 -36 9 -45 31 -34 89 15 82 77 119 129 77z m536 8 c25 -10 26 -13 22 -71
-5 -73 -28 -101 -81 -101 -55 0 -60 7 -54 74 5 61 18 85 52 98 27 12 30 12 61
0z m378 0 c21 -8 26 -16 26 -45 0 -31 -3 -35 -26 -35 -20 0 -24 4 -19 19 7 24
-13 38 -30 20 -7 -8 -16 -31 -19 -51 -6 -33 -5 -38 13 -38 11 0 23 5 26 10 9
15 45 12 45 -3 0 -24 -38 -49 -74 -49 -54 0 -59 7 -53 74 5 61 18 85 52 98 27
12 30 12 59 0z m-1424 -16 c0 -8 -5 -46 -11 -85 -11 -65 -13 -69 -39 -69 l-26
0 15 85 c13 78 16 85 38 85 14 0 23 -6 23 -16z m153 -5 c14 -23 -1 -107 -24
-130 -14 -14 -33 -19 -74 -19 -30 0 -55 1 -55 3 0 1 7 37 15 80 8 43 15 81 15
83 0 3 25 4 56 2 39 -2 60 -8 67 -19z m83 -6 l7 -27 22 28 c15 18 30 27 44 24
21 -3 20 -5 -12 -53 -19 -28 -38 -65 -41 -83 -6 -26 -13 -32 -33 -32 -23 0
-25 3 -19 33 4 20 0 51 -9 77 -20 56 -19 60 10 60 18 0 26 -7 31 -27z m424
-58 c0 -84 0 -85 -25 -85 -18 0 -25 5 -25 20 0 11 -6 20 -14 20 -8 0 -18 -9
-21 -20 -6 -19 -55 -30 -55 -12 0 4 12 42 27 85 l28 77 42 0 43 0 0 -85z m169
71 c11 -13 9 -31 -11 -73 -7 -15 -7 -31 0 -52 11 -30 10 -31 -18 -31 -22 0
-31 6 -41 33 l-13 32 -3 -32 c-4 -29 -8 -33 -34 -33 -16 0 -29 1 -29 3 0 1 7
37 15 80 8 43 15 81 15 83 0 11 109 3 119 -10z m399 -3 c-2 -13 -14 -19 -41
-21 -46 -4 -53 -32 -7 -32 32 0 33 -1 24 -24 -4 -10 -18 -16 -35 -16 -25 0
-30 -5 -35 -30 -5 -24 -12 -30 -31 -30 -18 0 -23 4 -20 18 3 9 11 47 17 85
l12 67 60 0 c51 0 59 -2 56 -17z m67 -5 c-2 -13 -9 -50 -15 -82 -11 -68 -12
-69 -37 -64 -18 3 -18 7 -4 86 13 76 16 82 38 82 19 0 22 -4 18 -22z m234 10
c0 -7 -6 -44 -12 -83 -11 -60 -15 -70 -35 -73 -25 -4 -26 1 -12 84 15 80 16
84 40 84 11 0 20 -6 19 -12z m96 -28 l12 -35 8 38 c6 31 11 37 32 37 18 0 23
-4 20 -17 -3 -10 -8 -36 -11 -58 -14 -89 -17 -95 -40 -95 -18 0 -26 9 -36 43
l-13 42 -9 -42 c-8 -36 -13 -43 -32 -43 l-24 0 14 73 c8 39 14 78 14 85 0 9
10 12 27 10 20 -2 29 -11 38 -38z m205 -45 c0 -84 0 -85 -25 -85 -18 0 -25 5
-25 20 0 12 -7 20 -16 20 -9 0 -18 -9 -21 -20 -3 -13 -14 -20 -29 -20 -29 0
-28 -5 -5 61 40 113 37 109 81 109 l40 0 0 -85z m-1895 -260 c0 -27 -3 -30
-30 -30 -21 0 -31 5 -33 18 -6 33 6 49 35 45 24 -3 28 -8 28 -33z m92 13 c-4
-12 -1 -28 5 -35 7 -9 7 -13 0 -13 -6 0 -16 8 -21 18 -10 16 -10 16 -11 0 0
-10 -4 -18 -10 -18 -5 0 -10 16 -10 35 0 31 3 35 26 35 22 0 25 -3 21 -22z
m93 13 c-27 -8 -35 -41 -11 -49 10 -3 12 0 8 12 -4 10 -1 16 8 16 8 0 15 -9
15 -21 0 -17 -5 -20 -32 -17 -56 5 -46 69 11 67 l26 -1 -25 -7z m88 -49 c8 -2
12 7 12 27 0 17 5 31 11 31 6 0 9 -14 7 -32 -2 -28 -7 -33 -28 -33 -22 0 -25
5 -27 35 -1 33 -1 33 5 6 4 -16 13 -31 20 -34z m92 29 c0 -20 6 -31 18 -34 10
-3 6 -5 -10 -6 -25 -1 -28 2 -28 34 0 19 5 35 10 35 6 0 10 -13 10 -29z m96
-1 c8 0 14 7 14 15 0 8 5 15 10 15 6 0 10 -16 10 -35 0 -19 -4 -35 -10 -35 -5
0 -10 7 -10 15 0 21 -28 19 -33 -2 -3 -10 -5 0 -5 22 0 22 2 32 5 23 2 -10 11
-18 19 -18z m139 -5 c0 -27 -3 -30 -30 -30 -21 0 -31 5 -33 18 -6 33 6 49 35
45 24 -3 28 -8 28 -33z m166 19 c18 -21 0 -48 -35 -52 -24 -3 -26 0 -26 32 0
31 3 36 24 36 13 0 29 -7 37 -16z m77 9 c-10 -2 -18 -9 -18 -14 0 -5 8 -10 18
-10 16 -1 16 -2 0 -6 -10 -2 -18 -8 -18 -13 0 -5 8 -11 18 -13 13 -4 11 -5 -5
-6 -20 -1 -23 4 -23 34 0 30 3 35 23 34 16 -1 18 -2 5 -6z m143 0 l-25 -5 23
-18 c29 -21 20 -41 -17 -39 -24 2 -24 2 -4 6 25 5 29 18 7 27 -27 10 -18 36
13 35 26 -2 26 -2 3 -6z m87 0 c-10 -2 -18 -9 -18 -14 0 -5 8 -10 18 -10 16
-1 16 -2 0 -6 -10 -2 -18 -8 -18 -13 0 -5 8 -11 18 -13 13 -4 11 -5 -5 -6 -20
-1 -23 4 -23 34 0 30 3 35 23 34 16 -1 18 -2 5 -6z m107 -30 c0 -38 -3 -40
-21 -15 -13 16 -13 16 -14 0 0 -35 -20 -17 -20 18 0 33 2 35 28 32 23 -3 27
-7 27 -35z m138 27 c-13 -5 -23 -16 -23 -25 0 -9 10 -20 23 -25 20 -9 19 -9
-8 -7 -50 4 -42 68 9 66 21 0 21 0 -1 -9z m77 -25 c0 -19 -4 -35 -10 -35 -5 0
-10 16 -10 35 0 19 5 35 10 35 6 0 10 -16 10 -35z m95 0 c0 -25 -4 -30 -27
-33 -26 -3 -28 -1 -28 33 0 34 2 36 28 33 23 -3 27 -8 27 -33z m60 25 c5 -8
12 -7 23 2 14 11 15 10 8 -7 -5 -11 -11 -28 -13 -37 -8 -27 -17 -22 -29 17
-10 33 -3 48 11 25z m115 1 c-33 -9 -38 -38 -8 -51 l23 -10 -25 3 c-46 4 -39
68 7 66 l28 -1 -25 -7z m98 -16 c17 -36 15 -50 -3 -35 -12 10 -18 10 -30 0
-10 -8 -15 -9 -15 -2 0 16 22 62 30 62 4 0 12 -11 18 -25z m99 3 c-4 -12 -1
-28 5 -35 7 -9 7 -13 0 -13 -6 0 -16 8 -21 18 -10 16 -10 16 -11 0 0 -10 -4
-18 -10 -18 -5 0 -10 16 -10 35 0 31 3 35 26 35 22 0 25 -3 21 -22z"/>
<path d="M1683 1448 c-6 -7 -13 -30 -17 -50 -6 -34 -5 -38 14 -38 23 0 29 10
32 59 3 36 -12 50 -29 29z"/>
<path d="M760 1428 c0 -13 -3 -34 -7 -47 -5 -19 -2 -22 12 -20 19 4 39 54 30
77 -8 21 -35 14 -35 -10z"/>
<path d="M1295 1436 c-3 -9 -7 -23 -10 -31 -2 -8 -1 -15 4 -15 10 0 25 50 17
58 -3 2 -8 -3 -11 -12z"/>
<path d="M1440 1435 c0 -8 7 -15 15 -15 8 0 15 7 15 15 0 8 -7 15 -15 15 -8 0
-15 -7 -15 -15z"/>
<path d="M2460 1436 c0 -8 -3 -21 -6 -30 -4 -11 -1 -16 10 -16 11 0 16 9 16
30 0 17 -4 30 -10 30 -5 0 -10 -6 -10 -14z"/>
<path d="M578 1158 c-7 -19 2 -38 18 -38 8 0 14 10 14 25 0 26 -24 35 -32 13z"/>
<path d="M690 1160 c0 -5 5 -10 10 -10 6 0 10 5 10 10 0 6 -4 10 -10 10 -5 0
-10 -4 -10 -10z"/>
<path d="M1183 1154 c-8 -21 13 -42 28 -27 13 13 5 43 -11 43 -6 0 -13 -7 -17
-16z"/>
<path d="M1350 1145 c0 -17 5 -25 13 -22 6 2 12 12 12 22 0 10 -6 20 -12 23
-8 2 -13 -6 -13 -23z"/>
<path d="M1770 1160 c0 -5 5 -10 10 -10 6 0 10 5 10 10 0 6 -4 10 -10 10 -5 0
-10 -4 -10 -10z"/>
<path d="M2070 1144 c0 -31 23 -28 28 4 2 15 -2 22 -12 22 -11 0 -16 -9 -16
-26z"/>
</g>
</svg>
